<?xml version="1.0" encoding="UTF-8"?>
<svg version="1.1" xmlns="http://www.w3.org/2000/svg" width="500" height="500">
<path d="M0 0 C165 0 330 0 500 0 C500 165 500 330 500 500 C335 500 170 500 0 500 C0 335 0 170 0 0 Z " fill="#FEFEFE" transform="translate(0,0)"/>
<path d="M0 0 C114.84 0 229.68 0 348 0 C348 31.68 348 63.36 348 96 C233.16 96 118.32 96 0 96 C0 64.32 0 32.64 0 0 Z " fill="#FCFCFC" transform="translate(76,202)"/>
<path d="M0 0 C54.12 0 108.24 0 164 0 C164 25.74 164 51.48 164 78 C109.88 78 55.76 78 0 78 C0 52.26 0 26.52 0 0 Z " fill="#000000" transform="translate(85,211)"/>
<path d="M0 0 C114.84 0 229.68 0 348 0 C348 31.68 348 63.36 348 96 C233.16 96 118.32 96 0 96 C0 64.32 0 32.64 0 0 Z M2 3 C2 32.7 2 62.4 2 93 C115.19 93 228.38 93 345 93 C345 63.3 345 33.6 345 3 C231.81 3 118.62 3 2 3 Z " fill="#020202" transform="translate(76,202)"/>
<path d="M0 0 C2.701875 -0.103125 5.40375 -0.20625 8.1875 -0.3125 C9.02949951 -0.35802002 9.87149902 -0.40354004 10.73901367 -0.45043945 C14.96610283 -0.52831878 16.56873755 -0.3272974 20.0625 2.32421875 C22 5 22 5 21.8125 8.125 C21.544375 9.07375 21.27625 10.0225 21 11 C21 11.99 21 12.98 21 14 C21.33 14.33 21.66 14.66 22 15 C22.46889952 21.33014354 22.46889952 21.33014354 20.6875 23.875 C16.66554862 26.55630092 12.43558165 26.11458976 7.8125 26.0625 C5.234375 26.041875 2.65625 26.02125 0 26 C0 17.42 0 8.84 0 0 Z " fill="#070707" transform="translate(284,236)"/>
<path d="M0 0 C1.98 0 3.96 0 6 0 C7.95927722 2.01320228 9.3527001 3.70101648 10.875 6 C11.2771875 6.57234375 11.679375 7.1446875 12.09375 7.734375 C13.0804061 9.14388371 14.04268106 10.57040372 15 12 C15.33 8.04 15.66 4.08 16 0 C18.31 0 20.62 0 23 0 C23 8.58 23 17.16 23 26 C17 26 17 26 14.4453125 23.59375 C13.67960937 22.5728125 12.91390625 21.551875 12.125 20.5 C11.34382813 19.4790625 10.56265625 18.458125 9.7578125 17.40625 C9.17773438 16.6121875 8.59765625 15.818125 8 15 C7.67 18.63 7.34 22.26 7 26 C4.69 26 2.38 26 0 26 C0 17.42 0 8.84 0 0 Z " fill="#010101" transform="translate(339,236)"/>
<path d="M0 0 C2.97 0 5.94 0 9 0 C10.50827797 3.76757497 12.00518994 7.53956349 13.5 11.3125 C13.92925781 12.38435547 14.35851562 13.45621094 14.80078125 14.56054688 C15.40986328 16.10258789 15.40986328 16.10258789 16.03125 17.67578125 C16.40830078 18.62364502 16.78535156 19.57150879 17.17382812 20.5480957 C18 23 18 23 18 26 C15.36 26 12.72 26 10 26 C9.67 25.01 9.34 24.02 9 23 C6.03 22.67 3.06 22.34 0 22 C-0.33 23.32 -0.66 24.64 -1 26 C-3.64 26 -6.28 26 -9 26 C-6.56696874 17.12157015 -3.29163506 8.58594775 0 0 Z " fill="#070707" transform="translate(317,236)"/>
<path d="M0 0 C2.31 0 4.62 0 7 0 C7 2.97 7 5.94 7 9 C8.65 9 10.3 9 12 9 C12.99 6.03 13.98 3.06 15 0 C17.64 0 20.28 0 23 0 C22.79503906 0.66386719 22.59007812 1.32773438 22.37890625 2.01171875 C22.10949219 2.89472656 21.84007812 3.77773437 21.5625 4.6875 C21.29566406 5.55761719 21.02882813 6.42773438 20.75390625 7.32421875 C20.50511719 8.20722656 20.25632812 9.09023437 20 10 C19.7525 10.83789062 19.505 11.67578125 19.25 12.5390625 C18.92813315 15.70743926 19.76440501 17.01689581 21.4375 19.6875 C24 23.84196185 24 23.84196185 24 26 C21.03 26 18.06 26 15 26 C11 18.25 11 18.25 11 16 C9.68 16 8.36 16 7 16 C7 19.3 7 22.6 7 26 C4.69 26 2.38 26 0 26 C0 17.42 0 8.84 0 0 Z " fill="#040404" transform="translate(368,236)"/>
<path d="M0 0 C3.20940012 1.80528757 5.53891833 3.781427 6.875 7.3125 C6.91625 7.869375 6.9575 8.42625 7 9 C4.13707027 8.59101004 3.18671386 8.22820583 1.3125 5.9375 C-1.79289079 3.33568609 -3.94771205 3.63576143 -7.87890625 3.76171875 C-10.18626781 3.94634302 -10.18626781 3.94634302 -13 5 C-14.73646455 10.20939364 -14.93758685 15.08576017 -12.5 20.0625 C-9.64837271 22.27251115 -7.63009141 22.70908332 -4.02734375 22.5078125 C-0.54205595 21.6348117 1.40040773 19.41822536 4 17 C4.99 17 5.98 17 7 17 C5.6396147 21.45217009 4.11130825 23.73458525 0 26 C-4.43427567 26.73003319 -8.84589474 27.0387385 -12.9765625 25.046875 C-16.18633604 22.54862761 -18.06593642 19.92306702 -19 16 C-19.45659831 11.81451546 -19.29820536 9.58494127 -17.375 5.8125 C-12.17987422 -0.33962263 -7.73895073 -2.40460255 0 0 Z " fill="#E9E9E9" transform="translate(194,236)"/>
<path d="M0 0 C1.32 0 2.64 0 4 0 C4.20681396 0.54003662 4.41362793 1.08007324 4.62670898 1.63647461 C5.56088784 4.07121595 6.49913747 6.50436819 7.4375 8.9375 C7.92573242 10.21270508 7.92573242 10.21270508 8.42382812 11.51367188 C8.73642578 12.32255859 9.04902344 13.13144531 9.37109375 13.96484375 C9.65911865 14.7137085 9.94714355 15.46257324 10.24389648 16.23413086 C10.86639115 17.99029133 10.86639115 17.99029133 12 19 C12.19110352 18.45996338 12.38220703 17.91992676 12.57910156 17.36352539 C13.45296557 14.92359402 14.3510629 12.49329929 15.25 10.0625 C15.55035156 9.21236328 15.85070312 8.36222656 16.16015625 7.48632812 C16.61455078 6.27299805 16.61455078 6.27299805 17.078125 5.03515625 C17.35043945 4.2862915 17.62275391 3.53742676 17.90332031 2.76586914 C19 1 19 1 21.12011719 0.24780273 C21.74047852 0.16602783 22.36083984 0.08425293 23 0 C21.35313053 6.13964496 19.31784811 12.12322739 17.0625 18.0625 C16.82192871 18.72967041 16.58135742 19.39684082 16.33349609 20.08422852 C15.59765625 21.97265625 15.59765625 21.97265625 14 25 C11.90014648 25.68920898 11.90014648 25.68920898 10 26 C8.32760079 22.04406422 6.66305618 18.0848716 5 14.125 C4.52304688 12.99707031 4.04609375 11.86914062 3.5546875 10.70703125 C2.87792969 9.09248047 2.87792969 9.09248047 2.1875 7.4453125 C1.76855469 6.45031738 1.34960938 5.45532227 0.91796875 4.43017578 C0 2 0 2 0 0 Z " fill="#EEEEEE" transform="translate(132,236)"/>
<path d="M0 0 C0.99 0 1.98 0 3 0 C3 8.58 3 17.16 3 26 C2.01 26 1.02 26 0 26 C0 17.42 0 8.84 0 0 Z " fill="#FFFFFF" transform="translate(163,236)"/>
<path d="M0 0 C1.98 0 3.96 0 6 0 C6.5625 1.9375 6.5625 1.9375 7 4 C6 5 6 5 2.9375 5.0625 C1.4834375 5.0315625 1.4834375 5.0315625 0 5 C0 3.35 0 1.7 0 0 Z " fill="#D9D9D9" transform="translate(291,241)"/>
<path d="M0 0 C2.62386487 3.06117568 3 3.73173127 3 8 C1.35 8 -0.3 8 -2 8 C-1.125 2.25 -1.125 2.25 0 0 Z " fill="#D5D5D5" transform="translate(321,245)"/>
<path d="M0 0 C1.98 0 3.96 0 6 0 C6 1.32 6 2.64 6 4 C4.02 4 2.04 4 0 4 C0 2.68 0 1.36 0 0 Z " fill="#F9F9F9" transform="translate(292,252)"/>
</svg>
